<svg width="228" height="35" viewBox="0 0 228 35" fill="none" xmlns="http://www.w3.org/2000/svg">
<path d="M25.488 10.536H19.152C18.816 7.272 16.848 5.688 12.816 5.688C9.072 5.688 7.104 7.032 7.104 9.432C7.104 11.448 8.496 12.6 12.048 13.464C15.648 14.328 19.152 15.192 21.504 16.248C24.288 17.496 26.496 19.464 26.496 23.976C26.496 30.984 21.216 34.104 13.776 34.104C5.904 34.104 0.432 30.6 0.288 23.448H6.72C6.816 26.712 9.552 28.728 13.824 28.728C17.76 28.728 20.016 27.048 20.016 24.216C20.016 22.344 19.056 21.048 15.072 20.184C11.136 19.32 8.592 18.744 6.336 17.736C2.928 16.2 1.008 13.896 1.008 9.864C1.008 4.152 4.896 0.0719976 12.672 0.0719976C20.736 0.0719976 25.248 4.44 25.488 10.536ZM43.2709 24.456H49.5589C48.8869 29.928 44.4229 33.624 38.7109 33.624C32.2789 33.624 27.8629 29.352 27.8629 20.904C27.8629 12.456 32.2789 8.76 38.9029 8.76C45.0469 8.76 49.2229 12.264 49.6069 17.832H43.3189C42.9829 15.384 41.2069 13.944 38.8549 13.944C36.2149 13.944 34.0549 15.624 34.0549 20.76C34.0549 25.896 36.2149 28.392 38.6629 28.392C41.1109 28.392 43.0309 27 43.2709 24.456ZM65.7083 24.024L65.7563 21.432C65.1323 22.056 64.0283 22.392 61.7243 22.824C58.1723 23.496 57.0203 24.504 57.0203 26.52C57.0203 28.296 58.0763 29.16 60.0443 29.16C63.2603 29.16 65.6603 26.808 65.7083 24.024ZM71.9963 33H66.1883C65.9963 32.424 65.8523 31.608 65.8043 30.888C64.3163 32.52 61.8203 33.624 58.6523 33.624C53.2763 33.624 50.7803 30.984 50.7803 27.144C50.7803 20.328 55.3403 19.56 61.6283 18.696C64.7483 18.264 65.6123 17.64 65.6123 16.008C65.6123 14.472 64.0763 13.56 61.6283 13.56C58.7963 13.56 57.6443 14.952 57.3563 17.064H51.5483C51.6443 12.168 54.3323 8.76 61.9163 8.76C69.4043 8.76 71.9963 12.12 71.9963 18.072V33ZM80.988 33H74.748V0.743998H80.988V33ZM89.5114 18.888H99.1594C99.0634 15.384 96.7594 13.704 94.3114 13.704C91.8154 13.704 89.7514 15.624 89.5114 18.888ZM105.591 22.824H89.3194C89.5114 26.376 91.5274 28.68 94.5994 28.68C96.6154 28.68 98.3914 27.672 98.8234 26.04H105.255C103.815 30.888 99.9274 33.624 94.8874 33.624C87.0154 33.624 83.0794 29.304 83.0794 20.76C83.0794 13.464 87.2554 8.76 94.5034 8.76C101.751 8.76 105.591 13.464 105.591 22.824Z" fill="#FE0000"/>
<path d="M122.676 6.648H114.084V15.144H122.436C125.988 15.144 127.332 13.368 127.332 10.92C127.332 8.424 125.988 6.648 122.676 6.648ZM132.708 33H126.18V24.792C126.18 21.72 125.028 20.52 121.188 20.52H114.084V33H107.604V1.128H123.78C129.684 1.128 133.572 5.064 133.572 10.344C133.572 13.752 131.892 16.632 128.82 17.736C131.652 18.648 132.708 20.232 132.708 23.976V33ZM141.402 18.888H151.05C150.954 15.384 148.65 13.704 146.202 13.704C143.706 13.704 141.642 15.624 141.402 18.888ZM157.482 22.824H141.21C141.402 26.376 143.418 28.68 146.49 28.68C148.506 28.68 150.282 27.672 150.714 26.04H157.146C155.706 30.888 151.818 33.624 146.778 33.624C138.906 33.624 134.97 29.304 134.97 20.76C134.97 13.464 139.146 8.76 146.394 8.76C153.642 8.76 157.482 13.464 157.482 22.824ZM173.943 24.024L173.991 21.432C173.367 22.056 172.263 22.392 169.959 22.824C166.407 23.496 165.255 24.504 165.255 26.52C165.255 28.296 166.311 29.16 168.279 29.16C171.495 29.16 173.895 26.808 173.943 24.024ZM180.231 33H174.423C174.231 32.424 174.087 31.608 174.039 30.888C172.551 32.52 170.055 33.624 166.887 33.624C161.511 33.624 159.015 30.984 159.015 27.144C159.015 20.328 163.575 19.56 169.863 18.696C172.983 18.264 173.847 17.64 173.847 16.008C173.847 14.472 172.311 13.56 169.863 13.56C167.031 13.56 165.879 14.952 165.591 17.064H159.783C159.879 12.168 162.567 8.76 170.151 8.76C177.639 8.76 180.231 12.12 180.231 18.072V33ZM197.958 24.456H204.246C203.574 29.928 199.11 33.624 193.398 33.624C186.966 33.624 182.55 29.352 182.55 20.904C182.55 12.456 186.966 8.76 193.59 8.76C199.734 8.76 203.91 12.264 204.294 17.832H198.006C197.67 15.384 195.894 13.944 193.542 13.944C190.902 13.944 188.742 15.624 188.742 20.76C188.742 25.896 190.902 28.392 193.35 28.392C195.798 28.392 197.718 27 197.958 24.456ZM227.5 33H221.212V18.36C221.212 14.808 220.012 13.704 217.18 13.704C214.06 13.704 212.332 16.296 212.332 19.464V33H206.092V0.743998H212.332V12.456C213.244 10.344 216.124 8.76 219.292 8.76C224.14 8.76 227.5 11.592 227.5 16.296V33Z" fill="white"/>
</svg>
